<svg width="41" height="40" viewBox="0 0 41 40" fill="none" xmlns="http://www.w3.org/2000/svg">
<path d="M20.1934 3.60364C25.5352 3.60364 26.1679 3.62545 28.2734 3.72C30.2225 3.80727 31.2806 4.13455 31.9861 4.40727C32.9206 4.77091 33.5861 5.20364 34.2843 5.90182C34.9825 6.6 35.4188 7.26909 35.7788 8.2C36.0515 8.90545 36.3788 9.96364 36.4661 11.9127C36.5606 14.0218 36.5825 14.6545 36.5825 19.9927C36.5825 25.3309 36.5606 25.9673 36.4661 28.0727C36.3788 30.0218 36.0515 31.08 35.7788 31.7855C35.4152 32.72 34.9825 33.3855 34.2843 34.0836C33.5861 34.7818 32.917 35.2182 31.9861 35.5782C31.2806 35.8509 30.2225 36.1782 28.2734 36.2655C26.1643 36.36 25.5315 36.3818 20.1934 36.3818C14.8552 36.3818 14.2188 36.36 12.1134 36.2655C10.1643 36.1782 9.10609 35.8509 8.40063 35.5782C7.46609 35.2145 6.80063 34.7818 6.10245 34.0836C5.40427 33.3855 4.9679 32.7164 4.6079 31.7855C4.33518 31.08 4.00791 30.0218 3.92063 28.0727C3.82609 25.9636 3.80427 25.3309 3.80427 19.9927C3.80427 14.6545 3.82609 14.0182 3.92063 11.9127C4.00791 9.96364 4.33518 8.90545 4.6079 8.2C4.97154 7.26545 5.40427 6.6 6.10245 5.90182C6.80063 5.20364 7.46972 4.76727 8.40063 4.40727C9.10609 4.13455 10.1643 3.80727 12.1134 3.72C14.2225 3.62545 14.8552 3.60364 20.1934 3.60364ZM20.1934 0C14.7606 0 14.0806 0.0218182 11.9461 0.12C9.81882 0.218182 8.36427 0.556364 7.09154 1.05091C5.77518 1.56364 4.66245 2.24727 3.54972 3.35636C2.437 4.46909 1.75336 5.58182 1.24427 6.89818C0.749723 8.17091 0.411542 9.62545 0.31336 11.7527C0.215178 13.8873 0.193359 14.5673 0.193359 20C0.193359 25.4327 0.215178 26.1127 0.31336 28.2473C0.411542 30.3745 0.749723 31.8291 1.24427 33.1018C1.757 34.4182 2.44063 35.5309 3.54972 36.6436C4.66245 37.7564 5.77518 38.44 7.09154 38.9491C8.36427 39.4436 9.81882 39.7818 11.9461 39.88C14.0806 39.9782 14.7606 40 20.1934 40C25.6261 40 26.3061 39.9782 28.4406 39.88C30.5679 39.7818 32.0225 39.4436 33.2952 38.9491C34.6115 38.4364 35.7243 37.7527 36.837 36.6436C37.9497 35.5309 38.6334 34.4182 39.1425 33.1018C39.637 31.8291 39.9752 30.3745 40.0734 28.2473C40.1715 26.1127 40.1934 25.4327 40.1934 20C40.1934 14.5673 40.1715 13.8873 40.0734 11.7527C39.9752 9.62545 39.637 8.17091 39.1425 6.89818C38.6297 5.58182 37.9461 4.46909 36.837 3.35636C35.7243 2.24364 34.6115 1.56 33.2952 1.05091C32.0225 0.556364 30.5679 0.218182 28.4406 0.12C26.3061 0.0218182 25.6261 0 20.1934 0Z" fill="#F1F8ED"/>
<path d="M20.1956 9.73047C14.5229 9.73047 9.92651 14.3268 9.92651 19.9996C9.92651 25.6723 14.5229 30.2686 20.1956 30.2686C25.8683 30.2686 30.4647 25.6723 30.4647 19.9996C30.4647 14.3268 25.8683 9.73047 20.1956 9.73047ZM20.1956 26.665C16.512 26.665 13.5302 23.6796 13.5302 19.9996C13.5302 16.3196 16.5156 13.3341 20.1956 13.3341C23.8756 13.3341 26.8611 16.3196 26.8611 19.9996C26.8611 23.6796 23.8756 26.665 20.1956 26.665Z" fill="#F1F8ED"/>
<path d="M30.8714 11.7238C32.1969 11.7238 33.2714 10.6493 33.2714 9.32383C33.2714 7.99834 32.1969 6.92383 30.8714 6.92383C29.546 6.92383 28.4714 7.99834 28.4714 9.32383C28.4714 10.6493 29.546 11.7238 30.8714 11.7238Z" fill="#F1F8ED"/>
</svg>
