<svg width="23" height="28" viewBox="0 0 23 28" fill="#176533" xmlns="http://www.w3.org/2000/svg">
<path fill-rule="evenodd" clip-rule="evenodd" d="M7.22564 0.651815C7.47037 0.536587 7.75294 0.532681 8.00076 0.641098C10.8431 1.88457 12.2232 4.35856 12.8912 6.40429C13.0057 6.75506 13.1006 7.09676 13.1792 7.42226C14.0568 6.32718 15.416 5.14841 17.3976 4.65299C17.6633 4.58658 17.9446 4.63962 18.1679 4.79817C18.3911 4.95672 18.5339 5.20494 18.5586 5.47762C18.7015 7.04907 19.1247 8.10286 19.5371 9.03503C19.5758 9.12257 19.6155 9.21094 19.6556 9.30025C20.0284 10.13 20.4375 11.0406 20.4375 12.125C20.4375 17.1301 16.3801 21.1875 11.375 21.1875C6.36992 21.1875 2.3125 17.1301 2.3125 12.125C2.3125 9.62635 3.19742 7.88592 4.16678 6.28484C4.32495 6.02359 4.48377 5.76797 4.64136 5.51434C5.45553 4.20394 6.23662 2.94678 6.72357 1.24245C6.79788 0.982359 6.98091 0.767042 7.22564 0.651815ZM13.5142 10.5471C13.3685 10.9829 12.9285 11.249 12.4748 11.1754C12.0215 11.1018 11.6882 10.7106 11.6875 10.2515C11.6875 10.2516 11.6875 10.2514 11.6875 10.2515L11.6874 10.2426L11.6866 10.1993C11.6856 10.159 11.6834 10.0962 11.6791 10.0135C11.6703 9.84806 11.6524 9.60407 11.6161 9.30239C11.5432 8.69681 11.3976 7.8708 11.1088 6.98629C10.6151 5.47434 9.73442 3.87707 8.16154 2.85097C7.6049 4.307 6.86832 5.48859 6.20729 6.54896C6.05685 6.79029 5.91032 7.02535 5.77072 7.25593C4.86508 8.75177 4.1875 10.1363 4.1875 12.125C4.1875 16.0945 7.40545 19.3125 11.375 19.3125C15.3445 19.3125 18.5625 16.0945 18.5625 12.125C18.5625 11.4605 18.3213 10.9173 17.9173 10.0078C17.8866 9.93854 17.8549 9.86719 17.8223 9.7935C17.4762 9.01096 17.0897 8.07331 16.8542 6.82369C15.7873 7.3174 15.0139 8.08435 14.4721 8.81584C14.124 9.28575 13.8799 9.73038 13.7241 10.0551C13.6464 10.2168 13.5915 10.3471 13.5572 10.4335C13.54 10.4766 13.5281 10.5086 13.521 10.528L13.5142 10.5471ZM13.5142 10.5471L13.5137 10.5487C13.5136 10.5488 13.5136 10.5487 13.5142 10.5471Z" fill="#176533"/>
<path fill-rule="evenodd" clip-rule="evenodd" d="M0.465713 21.2725C0.59129 20.7702 1.10029 20.4648 1.6026 20.5904L21.6026 25.5904C22.1049 25.716 22.4103 26.225 22.2847 26.7273C22.1592 27.2296 21.6502 27.535 21.1478 27.4094L1.14784 22.4094C0.645537 22.2838 0.340136 21.7748 0.465713 21.2725Z" fill="#176533"/>
<path fill-rule="evenodd" clip-rule="evenodd" d="M22.2847 21.2725C22.4103 21.7748 22.1049 22.2838 21.6026 22.4094L1.6026 27.4094C1.10029 27.535 0.59129 27.2296 0.465713 26.7273C0.340136 26.225 0.645537 25.716 1.14784 25.5904L21.1478 20.5904C21.6502 20.4648 22.1592 20.7702 22.2847 21.2725Z" fill="#176533"/>
</svg>
