<svg width="28" height="26" viewBox="0 0 28 26" fill="none" xmlns="http://www.w3.org/2000/svg">
<path d="M13.4144 1.01794C13.7568 0.744022 14.2433 0.744022 14.5857 1.01794L27.0857 11.0179C27.49 11.3414 27.5555 11.9313 27.2321 12.3357C26.9087 12.74 26.3187 12.8055 25.9144 12.4821L24.3125 11.2006V24.25C24.3125 24.7678 23.8928 25.1875 23.375 25.1875H4.62503C4.10727 25.1875 3.68753 24.7678 3.68753 24.25V11.2006L2.08569 12.4821C1.68138 12.8055 1.09142 12.74 0.76797 12.3357C0.444524 11.9313 0.510075 11.3414 0.914383 11.0179L13.4144 1.01794ZM18.9752 10.5952C19.3729 10.2637 19.4267 9.67259 19.0952 9.27483C18.7637 8.87707 18.1726 8.82333 17.7748 9.15479L14.6825 11.7317L13.4129 10.4621C13.0751 10.1243 12.5374 10.0945 12.1643 10.3929L9.03935 12.8929C8.63504 13.2164 8.56949 13.8063 8.89294 14.2107C9.21638 14.615 9.80634 14.6805 10.2107 14.3571L12.6804 12.3812L13.9621 13.6629C14.3049 14.0058 14.8527 14.0306 15.2252 13.7202L18.9752 10.5952ZM19.3125 14.25C19.3125 13.7322 18.8928 13.3125 18.375 13.3125C17.8572 13.3125 17.4375 13.7322 17.4375 14.25V20.5C17.4375 21.0178 17.8572 21.4375 18.375 21.4375C18.8928 21.4375 19.3125 21.0178 19.3125 20.5V14.25ZM14.9375 16.75C14.9375 16.2322 14.5178 15.8125 14 15.8125C13.4822 15.8125 13.0625 16.2322 13.0625 16.75V20.5C13.0625 21.0178 13.4822 21.4375 14 21.4375C14.5178 21.4375 14.9375 21.0178 14.9375 20.5V16.75ZM10.5625 18C10.5625 17.4822 10.1428 17.0625 9.625 17.0625C9.10723 17.0625 8.6875 17.4822 8.6875 18V20.5C8.6875 21.0178 9.10723 21.4375 9.625 21.4375C10.1428 21.4375 10.5625 21.0178 10.5625 20.5V18Z" fill="#474038"/>
</svg>
